<svg width="410" height="105" viewBox="0 0 410 105" fill="none" xmlns="http://www.w3.org/2000/svg">
<path d="M30.1329 83.386C46.5969 83.386 59.7009 70.506 59.7009 53.93C59.7009 37.242 46.5969 24.474 30.1329 24.474C13.7809 24.474 0.564941 37.242 0.564941 53.93C0.564941 70.506 13.7809 83.386 30.1329 83.386ZM30.1329 71.626C20.2769 71.626 12.6609 64.122 12.6609 53.93C12.6609 43.738 20.2769 36.234 30.1329 36.234C39.9889 36.234 47.6049 43.738 47.6049 53.93C47.6049 64.122 39.9889 71.626 30.1329 71.626Z" fill="white"/>
<path d="M104.179 25.93L88.6109 68.49L72.9309 25.93H59.7149L81.5549 81.93H95.5549L117.395 25.93H104.179Z" fill="white"/>
<path d="M130.147 59.082H174.723C174.947 57.514 175.171 55.722 175.171 54.042C175.171 37.914 163.747 24.474 147.059 24.474C129.475 24.474 117.491 37.354 117.491 53.93C117.491 70.73 129.475 83.386 147.955 83.386C158.931 83.386 167.331 78.794 172.483 71.178L162.515 65.354C159.827 69.274 154.787 72.298 148.067 72.298C139.107 72.298 132.051 67.818 130.147 59.082ZM130.035 49.226C131.715 40.826 137.875 35.45 146.947 35.45C154.227 35.45 161.283 39.594 162.963 49.226H130.035Z" fill="white"/>
<path d="M195.671 35.338V25.93H183.575V81.93H195.671V53.706C195.671 41.162 204.967 37.466 212.919 38.026V24.922C205.863 24.922 199.031 27.722 195.671 35.338Z" fill="white"/>
<path d="M219.616 81.93H231.712V0.169983H219.616V81.93Z" fill="white"/>
<path d="M287.869 25.93V33.882C283.613 28.058 277.005 24.474 268.269 24.474C253.037 24.474 240.381 37.242 240.381 53.93C240.381 70.506 253.037 83.386 268.269 83.386C277.005 83.386 283.613 79.802 287.869 73.866V81.93H299.965V25.93H287.869ZM270.173 71.85C260.093 71.85 252.477 64.346 252.477 53.93C252.477 43.514 260.093 36.01 270.173 36.01C280.253 36.01 287.869 43.514 287.869 53.93C287.869 64.346 280.253 71.85 270.173 71.85Z" fill="white"/>
<path d="M382.219 70.506L408.315 33.994V25.93H366.875V37.354H391.963L365.755 73.866V81.93H409.435V70.506H382.219Z" fill="white"/>
<path fill-rule="evenodd" clip-rule="evenodd" d="M317.461 93.58V105H349.516C353.086 105 355.963 103.948 358.058 101.775C360.219 99.6118 361.274 96.7431 361.274 93.242V26.044H348.398V54.714C348.398 60.5855 346.967 64.9518 344.209 67.9221L344.203 67.9285C341.508 70.9075 337.926 72.412 333.388 72.412C329.252 72.412 326.113 71.3265 323.882 69.237C321.674 67.0949 320.506 63.7565 320.506 59.082V26.044H307.63V59.978C307.63 64.7712 308.581 68.955 310.511 72.5059C312.435 76.0465 315.099 78.7899 318.497 80.7205C321.894 82.6505 325.743 83.608 330.028 83.608C333.588 83.608 336.589 83.1543 339.006 82.2188C341.382 81.299 343.334 80.1327 345.028 78.733C346.235 77.7353 347.799 75.9766 348.51 74.536V90.89C348.51 91.9178 348.269 92.5639 347.906 92.9529C347.551 93.3331 346.974 93.58 346.044 93.58H317.461Z" fill="white"/>
</svg>
